<?xml version="1.0" standalone="no"?>
<!DOCTYPE svg PUBLIC "-//W3C//DTD SVG 20010904//EN"
 "http://www.w3.org/TR/2001/REC-SVG-20010904/DTD/svg10.dtd">
<svg version="1.0" xmlns="http://www.w3.org/2000/svg"
 width="1024.000000pt" height="1024.000000pt" viewBox="0 0 1024.000000 1024.000000"
 preserveAspectRatio="xMidYMid meet">

<g transform="translate(0.000000,1024.000000) scale(0.100000,-0.100000)"
fill="#000000" stroke="none">
<path d="M5618 7504 c-96 -34 -170 -122 -263 -316 -48 -99 -58 -113 -104 -144
-57 -39 -82 -74 -132 -188 -26 -61 -42 -84 -69 -101 -65 -41 -112 -118 -125
-207 -7 -43 -10 -47 -52 -63 -61 -23 -113 -78 -153 -159 -18 -36 -38 -69 -44
-74 -6 -5 -44 -21 -85 -37 -86 -32 -142 -82 -182 -160 -24 -48 -28 -51 -110
-81 -137 -50 -159 -65 -212 -151 -23 -36 -34 -44 -84 -57 -107 -30 -147 -49
-191 -90 -25 -23 -51 -55 -58 -72 -9 -23 -23 -34 -53 -43 -24 -7 -65 -34 -98
-65 -38 -34 -81 -62 -123 -79 -97 -38 -355 -110 -620 -172 -435 -103 -537
-146 -624 -268 -58 -81 -103 -178 -119 -254 -9 -45 -20 -67 -49 -95 -41 -41
-68 -107 -105 -251 -22 -87 -24 -105 -14 -159 25 -141 108 -221 356 -343 415
-204 1001 -348 1705 -421 215 -22 1007 -30 1392 -15 980 40 1919 131 2373 232
322 71 493 157 546 273 25 54 24 108 -6 426 -42 446 -57 520 -118 597 -30 38
-35 52 -46 145 -35 287 -164 805 -241 963 -26 55 -42 105 -50 160 -6 44 -16
98 -22 120 -6 22 -10 65 -9 95 1 30 -5 94 -13 141 -43 243 -126 369 -244 369
-23 0 -91 -18 -154 -41 -160 -57 -257 -79 -383 -85 -132 -7 -219 8 -321 58
-55 27 -100 64 -237 196 -192 184 -304 273 -427 337 -155 80 -335 113 -432 79z
m288 -132 c72 -23 207 -92 249 -128 35 -30 17 -22 -43 18 -56 38 -130 71 -142
63 -6 -3 -10 -1 -10 5 0 7 -7 9 -17 6 -9 -4 -20 -1 -24 6 -5 7 -29 13 -59 13
-28 0 -54 5 -58 11 -9 13 -54 26 -46 13 3 -5 0 -9 -5 -9 -6 0 -11 5 -11 10 0
11 -64 5 -112 -10 -38 -12 -35 -2 5 16 42 19 189 12 273 -14z m-83 -74 c32
-11 56 -22 54 -25 -2 -2 -17 2 -33 8 -16 6 -58 20 -94 30 -46 13 -53 17 -25
14 22 -3 66 -15 98 -27z m-48 -39 c150 -46 316 -152 400 -255 36 -44 37 -47
14 -41 -13 3 -63 11 -111 17 -107 14 -197 2 -277 -36 -56 -27 -175 -137 -237
-218 l-30 -39 -107 22 c-58 11 -117 21 -131 21 -15 0 -26 4 -26 8 0 37 241
525 267 542 26 16 155 5 238 -21z m192 -375 c-3 -3 -12 -4 -19 -1 -8 3 -5 6 6
6 11 1 17 -2 13 -5z m249 -28 c38 -13 146 -55 239 -94 468 -193 705 -224 947
-122 120 50 195 130 168 180 -10 18 -14 17 -96 -21 -48 -22 -88 -38 -90 -36
-2 2 14 12 37 22 22 10 45 27 51 38 8 16 7 19 -3 15 -31 -12 -64 -20 -59 -15
3 2 38 19 79 37 72 31 75 32 107 16 38 -18 67 -67 89 -153 18 -70 18 -116 0
-53 l-13 45 -1 -35 c-2 -33 -2 -34 -14 -13 l-13 23 -35 -29 c-47 -39 -137 -92
-174 -102 -29 -8 -29 -8 -10 8 11 9 14 14 5 11 -8 -3 -49 -13 -90 -23 -104
-24 -126 -35 -65 -30 40 3 44 3 20 -4 -65 -18 -289 -11 -410 13 -23 5 -18 0
20 -19 28 -14 39 -22 25 -19 -50 13 -291 115 -397 167 -231 116 -392 177 -465
177 -30 0 -36 3 -31 16 3 9 0 20 -8 26 -26 18 116 -1 187 -26z m-206 -16 c-8
-5 -23 -10 -33 -10 -21 0 -113 -45 -122 -59 -3 -6 -20 -20 -38 -31 l-32 -22
35 32 c67 59 138 98 185 99 16 1 17 -1 5 -9z m203 -89 c32 -11 165 -72 295
-135 130 -62 261 -124 290 -136 29 -13 51 -24 49 -26 -1 -2 -27 3 -57 11 -48
12 -53 12 -36 0 33 -25 13 -17 -116 41 -464 211 -489 219 -621 217 -94 -1
-101 -3 -128 -29 -16 -15 -31 -25 -34 -22 -4 3 8 16 25 28 16 12 27 26 24 32
-4 7 -2 8 4 4 7 -4 20 -2 29 4 16 10 16 11 -2 6 -20 -6 -20 -6 -1 9 11 8 36
17 55 21 20 3 40 7 45 8 22 5 126 -14 179 -33z m-503 -25 c0 -2 -8 -10 -17
-17 -16 -13 -17 -12 -4 4 13 16 21 21 21 13z m-46 -61 c-4 -8 -11 -15 -16 -15
-6 0 -5 6 2 15 7 8 14 15 16 15 2 0 1 -7 -2 -15z m-204 -14 c108 -25 246 -74
307 -109 50 -30 93 -82 93 -114 0 -28 -45 -68 -76 -68 -15 0 -91 20 -168 45
-181 57 -319 91 -426 105 -159 21 -150 19 -150 45 0 32 54 93 94 104 56 17
235 12 326 -8z m702 -5 c72 -27 204 -92 212 -104 12 -20 -55 -8 -167 29 -133
45 -167 62 -167 84 0 22 50 19 122 -9z m1545 -63 c-3 -10 -5 -4 -5 12 0 17 2
24 5 18 2 -7 2 -21 0 -30z m-1693 -77 c26 -24 36 -41 35 -62 l-1 -29 -12 28
c-7 15 -15 24 -19 21 -4 -4 -7 -2 -7 4 0 7 -17 31 -37 54 -45 48 -16 38 41
-16z m1703 17 c-3 -10 -5 -4 -5 12 0 17 2 24 5 18 2 -7 2 -21 0 -30z m-330 21
c-3 -3 -12 -4 -19 -1 -8 3 -5 6 6 6 11 1 17 -2 13 -5z m-858 -84 c56 -25 97
-46 91 -48 -6 -2 -3 -10 7 -18 11 -9 -2 -6 -38 6 -31 11 -75 22 -98 26 -52 8
-57 4 -163 -138 -79 -104 -105 -124 -95 -70 5 25 4 25 -9 7 -11 -14 -14 -15
-14 -4 0 18 40 58 55 56 6 0 25 21 43 49 33 49 75 103 100 130 7 8 21 14 30
14 15 1 15 2 -1 11 -11 6 -22 7 -27 3 -32 -36 -120 -160 -120 -170 0 -6 -7
-17 -15 -24 -36 -30 -10 15 79 138 33 45 63 81 66 80 4 -2 52 -23 109 -48z
m511 3 c30 -11 31 -12 6 -8 -16 4 -43 13 -60 20 -23 11 -25 13 -6 8 14 -3 41
-12 60 -20z m-1730 -30 c33 -9 58 -19 55 -21 -3 -3 0 -11 6 -19 16 -18 11 -17
-99 16 -54 17 -108 32 -122 34 -14 2 3 5 38 6 34 0 89 -6 122 -16z m1810 7
c18 -12 2 -12 -25 0 -13 6 -15 9 -5 9 8 0 22 -4 30 -9z m47 -16 c-3 -3 -12 -4
-19 -1 -8 3 -5 6 6 6 11 1 17 -2 13 -5z m-1954 -29 c214 -53 367 -164 367
-265 0 -42 -16 -70 -41 -70 -12 0 -79 29 -150 65 -213 108 -392 155 -535 142
-35 -4 -64 -3 -64 1 0 18 42 72 74 97 78 60 192 69 349 30z m787 -69 c0 -2 -8
-10 -17 -17 -16 -13 -17 -12 -4 4 13 16 21 21 21 13z m-911 -141 c74 -19 83
-31 49 -60 l-28 -24 -77 28 c-43 16 -104 34 -135 41 -100 22 -65 42 62 34 41
-2 99 -11 129 -19z m-169 -55 c209 -59 341 -189 270 -265 -36 -39 -73 -32
-206 35 -149 76 -219 97 -365 112 -103 10 -116 13 -112 28 10 38 59 82 113
101 69 25 189 20 300 -11z m340 -17 c0 -3 -6 -3 -13 0 -8 3 -28 -8 -45 -24
-17 -16 -33 -25 -36 -20 -8 12 64 60 80 54 8 -3 14 -7 14 -10z m899 -7 c25
-14 63 -32 84 -40 25 -10 36 -20 31 -27 -5 -9 -2 -10 10 -6 11 5 15 3 10 -5
-5 -8 -2 -9 10 -5 9 4 15 3 12 -2 -4 -5 14 -21 38 -35 25 -15 48 -31 51 -36 4
-6 -15 3 -42 19 -26 16 -97 58 -158 95 -110 66 -135 88 -46 42z m-829 -32 c0
-2 -9 0 -20 6 -11 6 -20 13 -20 16 0 2 9 0 20 -6 11 -6 20 -13 20 -16z m50
-30 c0 -2 -9 0 -20 6 -11 6 -20 13 -20 16 0 2 9 0 20 -6 11 -6 20 -13 20 -16z
m-169 -1 c13 -16 12 -17 -3 -4 -10 7 -18 15 -18 17 0 8 8 3 21 -13z m2626 -50
c13 -32 30 -87 38 -122 18 -73 27 -59 -90 -140 -74 -51 -206 -120 -375 -196
-257 -116 -369 -183 -528 -319 -249 -213 -404 -434 -517 -739 -10 -26 -21 -50
-25 -52 -25 -15 -870 -145 -945 -145 -8 0 -35 42 -65 101 -27 55 -82 153 -122
217 -163 267 -203 340 -230 416 -42 123 -36 180 28 273 78 113 403 335 784
534 175 92 148 92 296 8 324 -182 495 -235 724 -226 321 12 737 182 931 380
35 35 66 65 69 66 3 0 15 -25 27 -56z m-1606 -74 c136 -73 242 -139 255 -161
4 -7 -7 -1 -26 12 -29 21 -34 22 -44 8 -10 -14 -16 -14 -56 -1 -25 9 -56 23
-70 33 -14 9 -32 17 -40 17 -8 0 -26 3 -40 7 -24 7 -24 6 -6 -8 11 -9 24 -16
30 -16 5 0 7 -3 4 -6 -8 -7 -143 64 -164 87 -25 28 -10 34 23 11 29 -21 73
-38 73 -28 0 3 -19 16 -42 28 -32 16 -38 23 -25 26 18 4 18 4 0 17 -15 11 -23
11 -48 -3 -16 -10 -36 -23 -43 -29 -7 -7 -21 -13 -30 -12 -15 0 -15 1 1 12 10
7 40 26 65 44 26 17 48 31 49 32 1 1 61 -31 134 -70z m-1487 11 c93 -32 99
-42 47 -79 -25 -18 -30 -19 -56 -5 -15 8 -30 12 -32 10 -3 -2 -28 6 -56 18
-29 12 -81 31 -117 41 l-64 20 39 12 c53 17 164 9 239 -17z m-245 -46 c141
-34 299 -132 335 -208 23 -48 21 -111 -4 -136 -11 -11 -25 -20 -30 -20 -19 0
-83 30 -77 36 3 3 14 1 25 -5 25 -13 69 -14 76 -2 3 4 -19 11 -49 14 -41 4
-78 19 -155 62 -138 79 -236 119 -335 140 -66 14 -85 22 -85 35 0 42 108 99
189 100 25 0 74 -7 110 -16z m348 -59 c-17 -16 -25 -30 -21 -38 5 -8 2 -8 -9
2 -22 17 -22 16 16 40 43 28 48 26 14 -4z m693 20 c0 -2 -10 -9 -22 -15 -22
-11 -22 -10 -4 4 21 17 26 19 26 11z m-70 -40 c0 -2 -10 -9 -22 -15 -22 -11
-22 -10 -4 4 21 17 26 19 26 11z m-70 -40 c0 -2 -10 -9 -22 -15 -22 -11 -22
-10 -4 4 21 17 26 19 26 11z m-65 -41 c-26 -20 -55 -36 -55 -30 0 5 63 46 70
46 3 -1 -4 -8 -15 -16z m-1010 -29 c58 -16 155 -62 155 -75 0 -4 -10 -16 -23
-28 l-22 -21 -50 31 c-56 35 -140 74 -200 94 l-40 13 60 0 c34 1 87 -6 120
-14z m945 -9 c0 -3 -15 -14 -32 -26 l-33 -22 30 26 c31 27 35 29 35 22z
m-1098 -27 c212 -72 380 -229 355 -331 -21 -80 -65 -75 -203 24 -211 153 -356
228 -441 228 -61 0 -29 47 59 85 50 21 157 19 230 -6z m998 -43 c0 -2 -8 -10
-17 -17 -16 -13 -17 -12 -4 4 13 16 21 21 21 13z m2775 -65 c6 -28 5 -33 -8
-28 -9 3 -18 -1 -21 -9 -10 -26 -24 -14 -22 20 1 21 -3 32 -9 28 -94 -62 -158
-103 -192 -122 -26 -14 -39 -28 -36 -36 3 -8 0 -14 -6 -14 -6 0 -11 5 -11 11
0 5 -4 7 -10 4 -5 -3 -10 -15 -10 -26 0 -10 -5 -19 -12 -19 -6 0 -9 -2 -6 -5
3 -3 31 5 62 19 68 30 67 20 -1 -14 -268 -135 -500 -321 -632 -506 -33 -48
-61 -84 -61 -82 0 3 12 27 26 54 l26 49 -36 -37 c-20 -21 -40 -38 -44 -38 -5
0 -28 -37 -51 -82 -23 -46 -39 -72 -35 -58 11 39 72 159 119 231 129 200 296
338 630 520 170 92 234 131 289 177 33 26 38 22 51 -37z m-2815 35 c0 -2 -21
-20 -47 -41 l-48 -37 45 41 c45 41 50 45 50 37z m-580 -10 c0 -2 -7 -7 -16
-10 -8 -3 -12 -2 -9 4 6 10 25 14 25 6z m35 -16 c3 -6 -1 -7 -9 -4 -18 7 -21
14 -7 14 6 0 13 -4 16 -10z m3375 -62 c0 -2 16 -79 35 -173 19 -93 35 -181 34
-195 0 -14 -9 18 -20 70 -37 189 -60 269 -75 263 -17 -6 -18 3 -1 22 10 12 27
20 27 13z m-2950 -12 c0 -2 -8 -10 -17 -17 -16 -13 -17 -12 -4 4 13 16 21 21
21 13z m-70 -80 c0 -2 -8 -10 -17 -17 -16 -13 -17 -12 -4 4 13 16 21 21 21 13z
m-1089 -78 c98 -46 135 -80 160 -148 15 -42 41 -82 86 -132 164 -184 242 -347
182 -378 -34 -19 -142 5 -300 66 -124 48 -153 53 -391 64 -222 11 -396 29
-539 56 -211 39 -401 100 -467 150 -27 21 -30 28 -21 45 14 28 36 35 264 85
320 71 449 105 625 166 160 55 168 57 256 54 72 -2 102 -8 145 -28z m263 -18
c-30 -42 -34 -54 -27 -77 5 -16 20 -33 32 -39 29 -15 111 -95 106 -104 -2 -3
7 -18 21 -33 13 -14 24 -31 24 -37 0 -12 35 -13 77 -1 l32 9 43 -76 c54 -96
52 -92 36 -92 -8 0 -23 -7 -34 -15 -10 -9 -13 -14 -5 -13 7 2 16 -3 19 -11 3
-9 0 -11 -9 -6 -10 6 -11 5 -4 -3 7 -7 21 -9 40 -4 28 8 31 6 52 -41 30 -63
29 -72 -1 -23 -16 27 -25 35 -30 25 -5 -11 -7 -11 -12 -1 -14 29 -22 9 -8 -23
21 -52 -6 -35 -36 23 -67 126 -124 197 -270 337 -61 58 -90 105 -90 142 0 17
64 113 75 113 3 0 -11 -22 -31 -50z m3595 13 c-23 -21 -45 -38 -50 -38 -4 0
-30 -35 -58 -77 -28 -43 -55 -78 -61 -78 -5 0 -10 -5 -10 -11 0 -8 5 -8 15 1
20 17 20 -2 -1 -65 -33 -94 -158 -185 -211 -152 -6 4 -15 2 -18 -4 -4 -5 -13
-8 -21 -5 -8 3 -14 1 -14 -4 0 -6 -27 -10 -60 -10 -61 0 -68 6 -60 45 1 6 -15
-6 -36 -25 -35 -32 -34 -30 12 29 81 105 199 202 363 299 108 63 232 131 244
131 4 1 -12 -16 -34 -36z m-589 -7 c0 -2 -8 -10 -17 -17 -16 -13 -17 -12 -4 4
13 16 21 21 21 13z m-2285 -66 c-8 -16 -15 -31 -15 -33 0 -12 34 -16 46 -6 11
9 12 2 8 -38 -6 -50 15 -153 43 -206 8 -16 12 -31 9 -34 -3 -3 -10 5 -15 18
-5 13 -15 38 -22 54 l-13 30 -4 -28 c-2 -15 -8 -25 -13 -22 -12 8 2 -27 46
-114 19 -39 33 -71 31 -71 -10 0 -97 169 -115 222 -34 98 -35 146 -6 206 14
28 27 52 30 52 3 0 -1 -13 -10 -30z m-216 -23 c-2 -1 -13 -9 -24 -17 -19 -14
-19 -14 -6 3 7 9 18 17 24 17 6 0 8 -1 6 -3z m-357 -90 c16 -16 33 -25 39 -21
7 4 9 3 6 -2 -3 -6 3 -15 14 -22 10 -7 19 -9 19 -4 0 4 12 8 28 9 l27 2 -28
-15 c-26 -14 -31 -14 -71 10 -43 25 -66 52 -79 91 -6 20 -6 20 6 0 7 -10 24
-32 39 -48z m2698 60 c0 -2 -10 -12 -22 -23 l-23 -19 19 23 c18 21 26 27 26
19z m-2707 -94 c20 -17 45 -34 57 -38 12 -4 19 -9 17 -12 -18 -18 -137 91
-137 125 1 10 6 5 14 -13 7 -17 29 -45 49 -62z m520 68 c-8 -31 16 -128 54
-215 51 -120 49 -122 -8 -11 -28 55 -49 90 -46 77 3 -14 1 -22 -6 -21 -17 3
-87 -30 -87 -40 0 -5 -12 -11 -27 -14 -25 -5 -98 -62 -98 -76 0 -3 -7 -6 -16
-5 -20 0 -19 -3 28 -100 19 -37 32 -70 31 -72 -2 -2 -21 32 -42 74 -22 42 -67
120 -101 173 l-63 96 187 76 c102 41 189 76 193 76 3 1 4 -8 1 -18z m2087 -65
c0 -2 -8 -10 -17 -17 -16 -13 -17 -12 -4 4 13 16 21 21 21 13z m1177 -48 c-3
-7 -5 -2 -5 12 0 14 2 19 5 13 2 -7 2 -19 0 -25z m-5312 -167 c198 -64 480
-114 735 -131 375 -25 375 -25 568 -97 52 -18 121 -40 155 -48 55 -13 57 -14
20 -12 -28 2 -43 -2 -43 -9 0 -7 6 -15 13 -17 6 -3 -1 -6 -16 -6 -15 -1 -62
12 -105 29 -42 16 -97 34 -122 39 -25 6 -65 17 -90 26 -53 19 -42 18 -440 45
-339 23 -480 44 -658 101 -127 41 -303 131 -287 147 2 3 12 -1 22 -9 15 -12
16 -12 10 3 -4 13 -2 15 11 11 15 -6 15 -4 -1 15 -14 16 0 11 60 -19 43 -22
119 -52 168 -68z m4005 76 c0 -2 -10 -12 -22 -23 l-23 -19 19 23 c18 21 26 27
26 19z m-4388 -40 c-6 -6 -22 -32 -36 -57 -14 -25 -26 -40 -26 -34 0 13 57
104 66 104 4 0 2 -6 -4 -13z m2618 -47 c6 -11 8 -20 6 -20 -3 0 -10 9 -16 20
-6 11 -8 20 -6 20 3 0 10 -9 16 -20z m3192 -91 c9 -18 19 -63 22 -99 3 -36 10
-99 16 -140 5 -41 10 -105 10 -143 0 -65 -1 -68 -31 -86 -77 -47 -367 -124
-678 -181 -117 -22 -218 -44 -225 -49 -13 -11 -49 -71 -42 -71 2 0 14 15 25
34 12 18 32 36 45 38 22 4 21 1 -19 -61 -23 -36 -57 -95 -75 -129 -21 -40 -43
-67 -58 -73 -55 -21 -912 -95 -1432 -123 -146 -8 -359 -20 -475 -27 -454 -25
-869 -15 -1165 27 -364 52 -1175 252 -1547 382 -181 64 -365 148 -415 191 -39
33 -40 36 -34 79 10 72 46 161 77 186 l28 24 97 -50 c289 -150 864 -290 1439
-352 685 -74 1336 -32 2435 155 631 108 1420 282 1674 369 119 41 269 111 281
130 11 18 29 6 47 -31z m-5461 -18 c80 -26 192 -58 250 -71 57 -12 106 -25
109 -29 3 -4 14 -13 25 -19 31 -18 -136 -15 -235 4 -97 18 -239 68 -275 96
-14 11 -25 30 -25 44 0 13 1 24 3 24 1 0 68 -22 148 -49z m-440 -18 c-12 -20
-14 -14 -5 12 4 9 9 14 11 11 3 -2 0 -13 -6 -23z m4700 -26 c-10 -9 -11 -8 -5
6 3 10 9 15 12 12 3 -3 0 -11 -7 -18z m-2391 -62 c0 -5 -5 -3 -10 5 -5 8 -10
20 -10 25 0 6 5 3 10 -5 5 -8 10 -19 10 -25z m3650 -529 c0 -95 -3 -115 -17
-128 -40 -35 -243 -103 -414 -137 -201 -41 -509 -74 -509 -55 0 11 121 233
130 239 5 3 91 21 192 41 261 50 518 117 553 144 13 10 48 18 58 13 4 -2 7
-55 7 -117z m-4914 -345 c94 -22 183 -41 198 -41 14 0 26 -5 26 -10 0 -6 -10
-8 -22 -5 -13 3 -68 14 -123 26 -99 21 -281 66 -300 74 -26 12 66 -6 221 -44z
m2937 -98 c-7 -2 -21 -2 -30 0 -10 3 -4 5 12 5 17 0 24 -2 18 -5z m-115 -10
c-27 -2 -69 -2 -95 0 -27 2 -5 3 47 3 52 0 74 -1 48 -3z m-185 -10 c-13 -2
-33 -2 -45 0 -13 2 -3 4 22 4 25 0 35 -2 23 -4z m-170 -10 c-7 -2 -21 -2 -30
0 -10 3 -4 5 12 5 17 0 24 -2 18 -5z m-165 -10 c-15 -2 -42 -2 -60 0 -18 2 -6
4 27 4 33 0 48 -2 33 -4z m-1105 -10 c-13 -2 -35 -2 -50 0 -16 2 -5 4 22 4 28
0 40 -2 28 -4z m499 -10 c-73 -2 -190 -2 -260 0 -70 1 -10 3 133 3 143 0 200
-2 127 -3z"/>
<path d="M7772 5883 c-23 -15 -42 -32 -42 -37 0 -5 10 0 23 12 36 33 45 26 11
-9 -26 -27 -165 -119 -181 -119 -3 0 0 7 8 16 8 10 0 8 -24 -6 -39 -23 -52
-39 -16 -20 11 7 23 9 26 7 2 -3 -18 -17 -46 -33 -28 -15 -49 -29 -47 -31 5
-6 194 107 258 154 47 34 98 93 81 93 -5 0 -28 -12 -51 -27z"/>
<path d="M7624 5774 c-18 -14 -18 -15 4 -4 12 6 22 13 22 15 0 8 -5 6 -26 -11z"/>
<path d="M6035 5725 c17 -14 35 -25 40 -25 6 0 -2 8 -17 18 -16 9 -28 20 -28
24 0 5 -6 8 -12 8 -7 -1 1 -12 17 -25z"/>
<path d="M6150 5660 c0 -5 13 -16 30 -25 38 -19 54 -19 18 1 -16 8 -28 19 -28
24 0 6 -4 10 -10 10 -5 0 -10 -4 -10 -10z"/>
<path d="M7425 5661 c-6 -11 13 -26 22 -17 4 3 1 6 -6 6 -7 0 -9 5 -6 10 3 6
4 10 1 10 -3 0 -7 -4 -11 -9z"/>
<path d="M6235 5620 c-3 -6 1 -7 9 -4 18 7 21 14 7 14 -6 0 -13 -4 -16 -10z"/>
<path d="M7220 5560 c-9 -6 -10 -10 -3 -10 6 0 15 5 18 10 8 12 4 12 -15 0z"/>
<path d="M7075 5395 c-40 -19 -16 -19 26 0 19 8 27 14 19 14 -8 0 -28 -7 -45
-14z"/>
<path d="M6986 5364 c-50 -18 -53 -21 -17 -20 16 1 27 3 25 5 -3 3 8 10 23 17
39 17 17 16 -31 -2z"/>
<path d="M6870 5320 c-8 -5 -10 -10 -5 -10 6 0 17 5 25 10 8 5 11 10 5 10 -5
0 -17 -5 -25 -10z"/>
<path d="M6900 5310 c-8 -5 -10 -10 -5 -10 6 0 17 5 25 10 8 5 11 10 5 10 -5
0 -17 -5 -25 -10z"/>
<path d="M6850 5290 c-8 -5 -10 -10 -5 -10 6 0 17 5 25 10 8 5 11 10 5 10 -5
0 -17 -5 -25 -10z"/>
<path d="M6397 5799 c7 -7 15 -10 18 -7 3 3 -2 9 -12 12 -14 6 -15 5 -6 -5z"/>
<path d="M2748 5033 c7 -3 16 -2 19 1 4 3 -2 6 -13 5 -11 0 -14 -3 -6 -6z"/>
<path d="M3715 4900 c3 -5 10 -10 16 -10 5 0 9 5 9 10 0 6 -7 10 -16 10 -8 0
-12 -4 -9 -10z"/>
<path d="M7405 5054 c-22 -13 -35 -24 -30 -24 6 0 28 11 50 25 22 13 36 24 30
24 -5 -1 -28 -12 -50 -25z"/>
<path d="M7362 4919 c-12 -5 -22 -10 -22 -13 0 -7 54 4 63 13 10 10 -14 10
-41 0z"/>
<path d="M3378 4743 c7 -3 16 -2 19 1 4 3 -2 6 -13 5 -11 0 -14 -3 -6 -6z"/>
<path d="M2210 4305 c14 -8 30 -14 35 -14 6 0 -1 6 -15 14 -14 8 -29 14 -35
14 -5 0 1 -6 15 -14z"/>
<path d="M2270 4280 c8 -5 20 -10 25 -10 6 0 3 5 -5 10 -8 5 -19 10 -25 10 -5
0 -3 -5 5 -10z"/>
<path d="M7185 3960 c-14 -27 -23 -50 -20 -50 2 0 16 23 30 50 14 28 23 50 20
50 -2 0 -16 -22 -30 -50z"/>
<path d="M8079 4165 c-4 -41 -10 -46 -89 -80 l-35 -14 30 2 c29 2 30 1 27 -40
-3 -37 -1 -41 18 -36 30 8 26 -25 -5 -37 -42 -16 -28 -20 15 -5 52 18 80 34
61 35 -11 0 -12 12 -7 58 12 101 13 141 5 137 -4 -3 -9 1 -12 7 -3 7 -6 -5 -8
-27z"/>
<path d="M7970 4047 c0 -8 7 -14 15 -14 8 0 15 6 15 14 0 7 -7 13 -15 13 -8 0
-15 -6 -15 -13z"/>
</g>
</svg>
